<?xml version="1.0" standalone="no"?>
<!DOCTYPE svg PUBLIC "-//W3C//DTD SVG 20010904//EN"
 "http://www.w3.org/TR/2001/REC-SVG-20010904/DTD/svg10.dtd">
<svg version="1.0" xmlns="http://www.w3.org/2000/svg"
 width="512.000000pt" height="512.000000pt" viewBox="0 0 512.000000 512.000000"
 preserveAspectRatio="xMidYMid meet">

<g transform="translate(0.000000,512.000000) scale(0.100000,-0.100000)"
fill="#000000" stroke="none">
<path d="M2420 5045 c-241 -29 -472 -173 -585 -367 -82 -138 -116 -316 -96
-494 7 -58 14 -111 17 -117 3 -10 -17 -12 -89 -9 -204 9 -306 -67 -353 -265
-14 -55 -16 -113 -13 -308 1 -132 3 -265 3 -295 1 -30 -3 -63 -7 -74 -8 -20
38 -20 -628 0 -172 5 -220 4 -289 -10 -128 -26 -201 -71 -243 -150 l-22 -41
-3 -1238 -2 -1238 -39 -37 c-31 -30 -41 -49 -51 -96 -13 -62 -7 -129 16 -184
27 -67 -163 -62 2477 -62 1569 0 2413 3 2448 10 93 18 124 54 135 158 11 101
-2 151 -49 196 l-40 38 6 932 c7 855 2 1179 -19 1509 l-7 107 -48 31 c-119 76
-295 106 -530 88 -200 -14 -520 -23 -562 -15 l-37 7 0 98 c0 54 5 179 11 276
16 279 -6 403 -88 487 -62 64 -179 87 -329 65 l-52 -7 15 67 c22 98 21 300 -1
388 -53 210 -189 372 -391 470 -169 81 -340 106 -555 80z m99 -69 c-11 -11
-354 -205 -357 -202 -3 4 96 100 159 154 22 19 54 34 85 40 52 10 120 15 113
8z m233 -34 c4 -4 -92 -65 -214 -135 -121 -70 -223 -126 -225 -124 -2 2 74 65
169 140 173 136 173 137 218 132 24 -3 48 -9 52 -13z m118 -50 c0 -9 -110 -76
-116 -69 -5 4 96 75 109 76 4 1 7 -2 7 -7z m134 -78 c16 -14 25 -29 20 -33
-11 -11 -394 -231 -400 -231 -3 0 -4 9 -2 21 2 14 60 64 168 144 91 68 170
124 175 124 6 0 23 -11 39 -25z m120 -119 c16 -24 16 -24 -52 -63 -37 -22
-150 -87 -251 -146 -182 -106 -238 -130 -144 -62 26 19 129 93 228 165 99 72
185 130 191 131 7 0 19 -11 28 -25z m-989 -47 c-157 -125 -251 -195 -253 -188
-2 4 3 22 10 40 11 26 38 46 138 105 123 72 160 87 105 43z m1059 -63 c6 -17
9 -15 -163 -114 -68 -39 -126 -69 -128 -67 -4 4 267 194 278 195 4 1 9 -6 13
-14z m-829 -94 c-6 -5 -120 -90 -255 -190 -229 -170 -245 -180 -253 -159 -20
56 -15 61 248 213 224 130 289 164 260 136z m111 -27 c-30 -21 -42 -17 -15 5
13 11 26 17 29 14 3 -2 -4 -11 -14 -19z m766 -8 c2 -16 -25 -36 -140 -104 -85
-49 -148 -80 -153 -75 -5 5 50 51 134 110 78 56 145 98 149 95 3 -4 8 -16 10
-26z m-1322 -100 c0 -9 -61 -48 -67 -43 -3 3 10 15 28 26 36 22 39 23 39 17z
m1343 -62 c-4 -11 -343 -207 -349 -202 -2 2 74 59 169 126 145 104 172 120
178 105 3 -10 4 -23 2 -29z m-873 21 c-7 -8 -18 -15 -24 -15 -6 0 -2 7 8 15
25 19 32 19 16 0z m529 -69 c-20 -16 -101 -57 -95 -47 11 17 67 51 85 51 8 0
12 -2 10 -4z m-644 -15 c-6 -5 -89 -66 -185 -136 l-175 -125 -14 30 c-8 16
-13 32 -10 34 19 19 358 206 373 206 13 0 16 -3 11 -9z m979 -93 c-4 -18 -15
-41 -25 -50 -26 -22 -320 -191 -325 -186 -4 5 338 268 348 268 4 0 5 -15 2
-32z m-994 -72 c0 -3 -64 -48 -141 -101 -101 -69 -144 -94 -152 -86 -16 16 -8
21 144 111 128 75 149 85 149 76z m226 -5 c-9 -14 -403 -291 -414 -291 -5 0
-16 8 -25 18 -15 17 -4 25 211 149 125 73 228 132 230 133 2 0 1 -4 -2 -9z
m1065 -81 c58 -16 102 -51 124 -100 20 -45 20 -64 17 -1737 l-3 -1693 -318 0
c-282 0 -320 2 -325 16 -9 24 -7 236 4 369 16 187 14 429 -5 499 -39 147 -57
155 -381 163 -415 10 -525 -20 -579 -157 -25 -66 -29 -163 -16 -471 6 -152 8
-308 5 -348 l-7 -71 -318 0 -319 0 0 1718 c0 1675 1 1718 19 1748 30 50 84 61
256 56 l80 -3 34 -73 c66 -145 185 -266 336 -341 139 -70 222 -88 395 -88 118
0 160 4 225 22 158 42 306 129 404 236 54 60 121 166 142 227 11 32 18 38 48
41 46 6 136 -1 182 -13z m-378 -86 c-13 -26 -36 -47 -86 -76 -38 -22 -70 -38
-72 -36 -4 4 162 148 171 148 2 0 -4 -16 -13 -36z m-663 12 c0 -2 -70 -54
-157 -116 -140 -100 -159 -111 -180 -101 -12 6 -23 14 -23 18 0 5 76 52 168
105 149 86 192 107 192 94z m250 -10 c-25 -24 -372 -287 -384 -292 -14 -5 -91
25 -83 33 11 10 462 271 472 272 5 1 3 -5 -5 -13z m150 -90 c0 -9 -260 -226
-282 -236 -14 -7 -43 -8 -75 -3 l-52 8 202 117 c212 123 207 120 207 114z
m-1767 -771 l157 0 0 -1293 0 -1293 -535 2 -535 1 0 1229 c0 1353 -4 1277 62
1317 75 47 131 52 423 45 149 -4 341 -7 428 -8z m3657 -28 c25 -12 55 -37 67
-56 l23 -34 0 -1233 0 -1234 -535 0 -535 0 0 1290 0 1290 403 3 c484 3 519 2
577 -26z m-2070 -1591 c215 -28 228 -61 190 -471 -8 -80 -10 -200 -7 -313 l6
-182 -360 0 -359 0 0 33 c-5 323 2 913 9 920 9 9 194 22 356 25 39 1 113 -4
165 -12z m623 -1035 l1597 -1 12 -27 c13 -34 15 -220 2 -233 -6 -6 -905 -10
-2377 -10 -1879 0 -2371 2 -2387 12 -33 21 -50 72 -57 172 l-6 95 809 -4 c445
-1 1528 -3 2407 -4z"/>
<path d="M1980 3189 c-91 -4 -124 -10 -157 -27 -86 -45 -108 -101 -100 -251 5
-94 35 -252 50 -267 13 -14 202 -35 313 -35 115 -1 123 0 181 29 88 45 90 50
99 254 6 167 6 178 -14 219 -12 24 -31 50 -43 58 -29 17 -186 27 -329 20z
m212 -70 c22 -9 29 -20 37 -63 13 -66 16 -201 6 -297 l-7 -77 -45 -6 c-73 -10
-202 -7 -242 5 -20 6 -47 25 -61 42 -23 29 -25 38 -25 147 1 63 4 145 9 182 7
66 8 67 39 70 85 8 265 6 289 -3z"/>
<path d="M2887 3185 c-61 -23 -98 -55 -121 -104 -19 -41 -21 -61 -18 -195 3
-223 15 -249 116 -266 225 -36 358 -33 440 13 69 38 83 70 87 199 8 263 2 292
-64 342 -26 19 -43 21 -215 23 -143 2 -196 -1 -225 -12z m346 -88 l27 -17 0
-183 c0 -100 -4 -187 -8 -193 -4 -7 -58 -14 -132 -19 -106 -6 -132 -4 -168 10
-69 28 -77 53 -74 230 1 83 5 158 8 167 6 20 56 26 214 24 83 -1 112 -5 133
-19z"/>
<path d="M2945 2350 c-96 -15 -141 -44 -175 -111 -28 -53 -33 -118 -21 -273
12 -171 20 -185 107 -203 260 -53 446 -30 510 64 18 27 22 51 27 195 8 216 -5
267 -79 310 -34 19 -286 32 -369 18z m277 -100 c11 0 22 -17 34 -52 14 -43 16
-72 10 -167 -3 -64 -9 -133 -12 -153 l-7 -38 -168 0 c-139 0 -170 3 -183 16
-13 13 -16 43 -16 173 0 197 4 219 39 223 20 2 177 2 303 -2z"/>
<path d="M1908 2331 c-131 -19 -188 -87 -188 -229 0 -91 35 -290 54 -310 8 -8
75 -19 175 -29 150 -15 168 -15 237 0 81 17 136 46 159 81 10 15 16 74 20 201
6 163 5 183 -12 214 -35 67 -53 73 -230 76 -87 2 -184 0 -215 -4z m304 -84
c30 -40 41 -145 28 -275 -6 -65 -13 -124 -16 -133 -4 -13 -25 -18 -112 -23
-95 -7 -114 -5 -163 14 -31 11 -64 29 -73 39 -27 30 -34 133 -18 274 l15 126
31 5 c17 2 90 2 161 0 120 -4 131 -7 147 -27z"/>
<path d="M557 2596 c-94 -35 -105 -66 -109 -292 -2 -170 -1 -181 21 -227 25
-52 20 -50 161 -72 172 -27 316 -16 381 28 66 45 69 54 75 259 6 179 5 189
-16 233 -34 70 -50 75 -278 81 -156 4 -205 2 -235 -10z m387 -113 c17 -34 23
-187 12 -301 l-9 -82 -181 2 -181 3 -3 180 c-1 99 0 190 3 203 5 22 7 22 175
22 l169 0 15 -27z"/>
<path d="M580 1571 c-114 -38 -128 -69 -131 -296 -3 -154 -1 -174 18 -217 20
-44 24 -47 75 -57 100 -19 271 -31 339 -22 83 11 150 40 176 77 19 26 22 51
28 210 7 169 6 183 -13 226 -31 72 -48 77 -274 83 -106 3 -204 1 -218 -4z
m342 -93 c43 -28 51 -89 37 -259 l-12 -146 -76 -6 c-42 -3 -118 -3 -169 0
-115 7 -122 15 -129 136 -6 98 12 278 30 290 7 4 76 6 153 4 109 -2 147 -7
166 -19z"/>
<path d="M4140 2575 c-89 -41 -99 -67 -106 -277 -8 -268 1 -277 271 -278 202
-1 259 11 316 69 54 54 63 98 54 270 -8 159 -13 183 -48 205 -36 24 -438 33
-487 11z m336 -45 c61 0 87 -122 67 -314 -7 -71 -15 -132 -18 -135 -12 -11
-210 -13 -259 -2 -58 13 -102 48 -112 88 -8 29 14 334 25 352 6 9 224 21 259
14 8 -2 24 -3 38 -3z"/>
<path d="M4155 1559 c-46 -18 -84 -48 -100 -79 -10 -20 -17 -79 -21 -203 -5
-153 -4 -179 11 -211 28 -58 47 -63 275 -71 l205 -7 54 29 c83 43 89 62 93
273 2 190 -4 221 -56 255 -31 21 -414 32 -461 14z m362 -76 c8 -12 21 -57 28
-100 12 -66 11 -95 -1 -197 -9 -67 -20 -123 -25 -127 -22 -13 -167 -19 -224
-8 -72 13 -110 32 -127 62 -14 26 -16 166 -4 294 l9 92 31 4 c17 3 91 4 165 3
126 -1 135 -2 148 -23z"/>
</g>
</svg>
